<svg width="919" height="255" viewBox="0 0 919 255" fill="none" xmlns="http://www.w3.org/2000/svg">
<circle cx="134" cy="128" r="61.5" fill="black" stroke="black" stroke-width="7"/>
<circle cx="124" cy="124" r="95.5" stroke="black" stroke-width="7"/>
<circle cx="195.5" cy="59.5" r="15" fill="black"/>
<circle cx="124" cy="219.5" r="10" fill="black"/>
<path d="M289.588 166.465C288.326 166.465 287.324 166.131 286.582 165.463C285.914 164.795 285.58 164.016 285.58 163.125C285.58 162.234 285.914 161.455 286.582 160.787C287.324 160.119 288.326 159.785 289.588 159.785H313.412C314.674 159.785 315.639 160.119 316.307 160.787C317.049 161.455 317.42 162.234 317.42 163.125C317.42 164.016 317.049 164.795 316.307 165.463C315.639 166.131 314.674 166.465 313.412 166.465H289.588ZM346.588 166.465C345.326 166.465 344.324 166.131 343.582 165.463C342.914 164.795 342.58 164.016 342.58 163.125C342.58 162.234 342.914 161.455 343.582 160.787C344.324 160.119 345.326 159.785 346.588 159.785H370.412C371.674 159.785 372.639 160.119 373.307 160.787C374.049 161.455 374.42 162.234 374.42 163.125C374.42 164.016 374.049 164.795 373.307 165.463C372.639 166.131 371.674 166.465 370.412 166.465H346.588ZM289.588 152.215C288.326 152.215 287.324 151.881 286.582 151.213C285.914 150.545 285.58 149.766 285.58 148.875C285.58 147.984 285.914 147.205 286.582 146.537C287.324 145.869 288.326 145.535 289.588 145.535H313.412C314.674 145.535 315.639 145.869 316.307 146.537C317.049 147.205 317.42 147.984 317.42 148.875C317.42 149.766 317.049 150.545 316.307 151.213C315.639 151.881 314.674 152.215 313.412 152.215H289.588ZM346.588 152.215C345.326 152.215 344.324 151.881 343.582 151.213C342.914 150.545 342.58 149.766 342.58 148.875C342.58 147.984 342.914 147.205 343.582 146.537C344.324 145.869 345.326 145.535 346.588 145.535H370.412C371.674 145.535 372.639 145.869 373.307 146.537C374.049 147.205 374.42 147.984 374.42 148.875C374.42 149.766 374.049 150.545 373.307 151.213C372.639 151.881 371.674 152.215 370.412 152.215H346.588ZM289.588 137.965C288.326 137.965 287.324 137.631 286.582 136.963C285.914 136.295 285.58 135.516 285.58 134.625C285.58 133.734 285.914 132.955 286.582 132.287C287.324 131.619 288.326 131.285 289.588 131.285H313.412C314.674 131.285 315.639 131.619 316.307 132.287C317.049 132.955 317.42 133.734 317.42 134.625C317.42 135.516 317.049 136.295 316.307 136.963C315.639 137.631 314.674 137.965 313.412 137.965H289.588ZM346.588 137.965C345.326 137.965 344.324 137.631 343.582 136.963C342.914 136.295 342.58 135.516 342.58 134.625C342.58 133.734 342.914 132.955 343.582 132.287C344.324 131.619 345.326 131.285 346.588 131.285H370.412C371.674 131.285 372.639 131.619 373.307 132.287C374.049 132.955 374.42 133.734 374.42 134.625C374.42 135.516 374.049 136.295 373.307 136.963C372.639 137.631 371.674 137.965 370.412 137.965H346.588ZM289.588 123.715C288.326 123.715 287.324 123.381 286.582 122.713C285.914 122.045 285.58 121.266 285.58 120.375C285.58 119.484 285.914 118.705 286.582 118.037C287.324 117.369 288.326 117.035 289.588 117.035H370.412C371.674 117.035 372.639 117.369 373.307 118.037C374.049 118.705 374.42 119.484 374.42 120.375C374.42 121.266 374.049 122.045 373.307 122.713C372.639 123.381 371.674 123.715 370.412 123.715H289.588ZM289.588 109.465C288.326 109.465 287.324 109.131 286.582 108.463C285.914 107.795 285.58 107.016 285.58 106.125C285.58 105.234 285.914 104.455 286.582 103.787C287.324 103.119 288.326 102.785 289.588 102.785H313.412C314.674 102.785 315.639 103.119 316.307 103.787C317.049 104.455 317.42 105.234 317.42 106.125C317.42 107.016 317.049 107.795 316.307 108.463C315.639 109.131 314.674 109.465 313.412 109.465H289.588ZM346.588 109.465C345.326 109.465 344.324 109.131 343.582 108.463C342.914 107.795 342.58 107.016 342.58 106.125C342.58 105.234 342.914 104.455 343.582 103.787C344.324 103.119 345.326 102.785 346.588 102.785H370.412C371.674 102.785 372.639 103.119 373.307 103.787C374.049 104.455 374.42 105.234 374.42 106.125C374.42 107.016 374.049 107.795 373.307 108.463C372.639 109.131 371.674 109.465 370.412 109.465H346.588ZM303.838 95.2148C302.576 95.2148 301.574 94.8809 300.832 94.2129C300.164 93.5449 299.83 92.7656 299.83 91.875C299.83 90.9844 300.164 90.2051 300.832 89.5371C301.574 88.8691 302.576 88.5352 303.838 88.5352H356.162C357.424 88.5352 358.389 88.8691 359.057 89.5371C359.799 90.2051 360.17 90.9844 360.17 91.875C360.17 92.7656 359.799 93.5449 359.057 94.2129C358.389 94.8809 357.424 95.2148 356.162 95.2148H303.838ZM318.088 80.9648C316.826 80.9648 315.824 80.6309 315.082 79.9629C314.414 79.2949 314.08 78.5156 314.08 77.625C314.08 76.7344 314.414 75.9551 315.082 75.2871C315.824 74.6191 316.826 74.2852 318.088 74.2852H341.912C343.174 74.2852 344.139 74.6191 344.807 75.2871C345.549 75.9551 345.92 76.7344 345.92 77.625C345.92 78.5156 345.549 79.2949 344.807 79.9629C344.139 80.6309 343.174 80.9648 341.912 80.9648H318.088ZM444.628 166.465C443.366 166.465 442.364 166.131 441.622 165.463C440.954 164.795 440.62 164.016 440.62 163.125C440.62 162.234 440.954 161.455 441.622 160.787C442.364 160.119 443.366 159.785 444.628 159.785H468.452C469.714 159.785 470.679 160.119 471.347 160.787C472.089 161.455 472.46 162.234 472.46 163.125C472.46 164.016 472.089 164.795 471.347 165.463C470.679 166.131 469.714 166.465 468.452 166.465H444.628ZM444.628 152.215C443.366 152.215 442.364 151.881 441.622 151.213C440.954 150.545 440.62 149.766 440.62 148.875C440.62 147.984 440.954 147.205 441.622 146.537C442.364 145.869 443.366 145.535 444.628 145.535H468.452C469.714 145.535 470.679 145.869 471.347 146.537C472.089 147.205 472.46 147.984 472.46 148.875C472.46 149.766 472.089 150.545 471.347 151.213C470.679 151.881 469.714 152.215 468.452 152.215H444.628ZM444.628 137.965C443.366 137.965 442.364 137.631 441.622 136.963C440.954 136.295 440.62 135.516 440.62 134.625C440.62 133.734 440.954 132.955 441.622 132.287C442.364 131.619 443.366 131.285 444.628 131.285H468.452C469.714 131.285 470.679 131.619 471.347 132.287C472.089 132.955 472.46 133.734 472.46 134.625C472.46 135.516 472.089 136.295 471.347 136.963C470.679 137.631 469.714 137.965 468.452 137.965H444.628ZM444.628 123.715C443.366 123.715 442.364 123.381 441.622 122.713C440.954 122.045 440.62 121.266 440.62 120.375C440.62 119.484 440.954 118.705 441.622 118.037C442.364 117.369 443.366 117.035 444.628 117.035H468.452C469.714 117.035 470.679 117.369 471.347 118.037C472.089 118.705 472.46 119.484 472.46 120.375C472.46 121.266 472.089 122.045 471.347 122.713C470.679 123.381 469.714 123.715 468.452 123.715H444.628ZM444.628 109.465C443.366 109.465 442.364 109.131 441.622 108.463C440.954 107.795 440.62 107.016 440.62 106.125C440.62 105.234 440.954 104.455 441.622 103.787C442.364 103.119 443.366 102.785 444.628 102.785H468.452C469.714 102.785 470.679 103.119 471.347 103.787C472.089 104.455 472.46 105.234 472.46 106.125C472.46 107.016 472.089 107.795 471.347 108.463C470.679 109.131 469.714 109.465 468.452 109.465H444.628ZM444.628 95.2148C443.366 95.2148 442.364 94.8809 441.622 94.2129C440.954 93.5449 440.62 92.7656 440.62 91.875C440.62 90.9844 440.954 90.2051 441.622 89.5371C442.364 88.8691 443.366 88.5352 444.628 88.5352H468.452C469.714 88.5352 470.679 88.8691 471.347 89.5371C472.089 90.2051 472.46 90.9844 472.46 91.875C472.46 92.7656 472.089 93.5449 471.347 94.2129C470.679 94.8809 469.714 95.2148 468.452 95.2148H444.628ZM416.128 80.9648C414.866 80.9648 413.864 80.6309 413.122 79.9629C412.454 79.2949 412.12 78.5156 412.12 77.625C412.12 76.7344 412.454 75.9551 413.122 75.2871C413.864 74.6191 414.866 74.2852 416.128 74.2852H496.952C498.214 74.2852 499.179 74.6191 499.847 75.2871C500.589 75.9551 500.96 76.7344 500.96 77.625C500.96 78.5156 500.589 79.2949 499.847 79.9629C499.179 80.6309 498.214 80.9648 496.952 80.9648H416.128ZM542.668 166.465C541.406 166.465 540.404 166.131 539.662 165.463C538.994 164.795 538.66 164.016 538.66 163.125C538.66 162.234 538.994 161.455 539.662 160.787C540.404 160.119 541.406 159.785 542.668 159.785H623.492C624.754 159.785 625.719 160.119 626.387 160.787C627.129 161.455 627.5 162.234 627.5 163.125C627.5 164.016 627.129 164.795 626.387 165.463C625.719 166.131 624.754 166.465 623.492 166.465H542.668ZM542.668 152.215C541.406 152.215 540.404 151.881 539.662 151.213C538.994 150.545 538.66 149.766 538.66 148.875C538.66 147.984 538.994 147.205 539.662 146.537C540.404 145.869 541.406 145.535 542.668 145.535H566.492C567.754 145.535 568.719 145.869 569.387 146.537C570.129 147.205 570.5 147.984 570.5 148.875C570.5 149.766 570.129 150.545 569.387 151.213C568.719 151.881 567.754 152.215 566.492 152.215H542.668ZM542.668 137.965C541.406 137.965 540.404 137.631 539.662 136.963C538.994 136.295 538.66 135.516 538.66 134.625C538.66 133.734 538.994 132.955 539.662 132.287C540.404 131.619 541.406 131.285 542.668 131.285H566.492C567.754 131.285 568.719 131.619 569.387 132.287C570.129 132.955 570.5 133.734 570.5 134.625C570.5 135.516 570.129 136.295 569.387 136.963C568.719 137.631 567.754 137.965 566.492 137.965H542.668ZM542.668 123.715C541.406 123.715 540.404 123.381 539.662 122.713C538.994 122.045 538.66 121.266 538.66 120.375C538.66 119.484 538.994 118.705 539.662 118.037C540.404 117.369 541.406 117.035 542.668 117.035H566.492C567.754 117.035 568.719 117.369 569.387 118.037C570.129 118.705 570.5 119.484 570.5 120.375C570.5 121.266 570.129 122.045 569.387 122.713C568.719 123.381 567.754 123.715 566.492 123.715H542.668ZM542.668 109.465C541.406 109.465 540.404 109.131 539.662 108.463C538.994 107.795 538.66 107.016 538.66 106.125C538.66 105.234 538.994 104.455 539.662 103.787C540.404 103.119 541.406 102.785 542.668 102.785H566.492C567.754 102.785 568.719 103.119 569.387 103.787C570.129 104.455 570.5 105.234 570.5 106.125C570.5 107.016 570.129 107.795 569.387 108.463C568.719 109.131 567.754 109.465 566.492 109.465H542.668ZM542.668 95.2148C541.406 95.2148 540.404 94.8809 539.662 94.2129C538.994 93.5449 538.66 92.7656 538.66 91.875C538.66 90.9844 538.994 90.2051 539.662 89.5371C540.404 88.8691 541.406 88.5352 542.668 88.5352H566.492C567.754 88.5352 568.719 88.8691 569.387 89.5371C570.129 90.2051 570.5 90.9844 570.5 91.875C570.5 92.7656 570.129 93.5449 569.387 94.2129C568.719 94.8809 567.754 95.2148 566.492 95.2148H542.668ZM542.668 80.9648C541.406 80.9648 540.404 80.6309 539.662 79.9629C538.994 79.2949 538.66 78.5156 538.66 77.625C538.66 76.7344 538.994 75.9551 539.662 75.2871C540.404 74.6191 541.406 74.2852 542.668 74.2852H566.492C567.754 74.2852 568.719 74.6191 569.387 75.2871C570.129 75.9551 570.5 76.7344 570.5 77.625C570.5 78.5156 570.129 79.2949 569.387 79.9629C568.719 80.6309 567.754 80.9648 566.492 80.9648H542.668ZM669.208 166.465C667.946 166.465 666.944 166.131 666.202 165.463C665.534 164.795 665.2 164.016 665.2 163.125C665.2 162.234 665.534 161.455 666.202 160.787C666.944 160.119 667.946 159.785 669.208 159.785H693.032C694.294 159.785 695.259 160.119 695.927 160.787C696.669 161.455 697.04 162.234 697.04 163.125C697.04 164.016 696.669 164.795 695.927 165.463C695.259 166.131 694.294 166.465 693.032 166.465H669.208ZM726.208 166.465C724.946 166.465 723.944 166.131 723.202 165.463C722.534 164.795 722.2 164.016 722.2 163.125C722.2 162.234 722.534 161.455 723.202 160.787C723.944 160.119 724.946 159.785 726.208 159.785H750.032C751.294 159.785 752.259 160.119 752.927 160.787C753.669 161.455 754.04 162.234 754.04 163.125C754.04 164.016 753.669 164.795 752.927 165.463C752.259 166.131 751.294 166.465 750.032 166.465H726.208ZM669.208 152.215C667.946 152.215 666.944 151.881 666.202 151.213C665.534 150.545 665.2 149.766 665.2 148.875C665.2 147.984 665.534 147.205 666.202 146.537C666.944 145.869 667.946 145.535 669.208 145.535H693.032C694.294 145.535 695.259 145.869 695.927 146.537C696.669 147.205 697.04 147.984 697.04 148.875C697.04 149.766 696.669 150.545 695.927 151.213C695.259 151.881 694.294 152.215 693.032 152.215H669.208ZM726.208 152.215C724.946 152.215 723.944 151.881 723.202 151.213C722.534 150.545 722.2 149.766 722.2 148.875C722.2 147.984 722.534 147.205 723.202 146.537C723.944 145.869 724.946 145.535 726.208 145.535H750.032C751.294 145.535 752.259 145.869 752.927 146.537C753.669 147.205 754.04 147.984 754.04 148.875C754.04 149.766 753.669 150.545 752.927 151.213C752.259 151.881 751.294 152.215 750.032 152.215H726.208ZM669.208 137.965C667.946 137.965 666.944 137.631 666.202 136.963C665.534 136.295 665.2 135.516 665.2 134.625C665.2 133.734 665.534 132.955 666.202 132.287C666.944 131.619 667.946 131.285 669.208 131.285H693.032C694.294 131.285 695.259 131.619 695.927 132.287C696.669 132.955 697.04 133.734 697.04 134.625C697.04 135.516 696.669 136.295 695.927 136.963C695.259 137.631 694.294 137.965 693.032 137.965H669.208ZM726.208 137.965C724.946 137.965 723.944 137.631 723.202 136.963C722.534 136.295 722.2 135.516 722.2 134.625C722.2 133.734 722.534 132.955 723.202 132.287C723.944 131.619 724.946 131.285 726.208 131.285H750.032C751.294 131.285 752.259 131.619 752.927 132.287C753.669 132.955 754.04 133.734 754.04 134.625C754.04 135.516 753.669 136.295 752.927 136.963C752.259 137.631 751.294 137.965 750.032 137.965H726.208ZM669.208 123.715C667.946 123.715 666.944 123.381 666.202 122.713C665.534 122.045 665.2 121.266 665.2 120.375C665.2 119.484 665.534 118.705 666.202 118.037C666.944 117.369 667.946 117.035 669.208 117.035H750.032C751.294 117.035 752.259 117.369 752.927 118.037C753.669 118.705 754.04 119.484 754.04 120.375C754.04 121.266 753.669 122.045 752.927 122.713C752.259 123.381 751.294 123.715 750.032 123.715H669.208ZM669.208 109.465C667.946 109.465 666.944 109.131 666.202 108.463C665.534 107.795 665.2 107.016 665.2 106.125C665.2 105.234 665.534 104.455 666.202 103.787C666.944 103.119 667.946 102.785 669.208 102.785H693.032C694.294 102.785 695.259 103.119 695.927 103.787C696.669 104.455 697.04 105.234 697.04 106.125C697.04 107.016 696.669 107.795 695.927 108.463C695.259 109.131 694.294 109.465 693.032 109.465H669.208ZM726.208 109.465C724.946 109.465 723.944 109.131 723.202 108.463C722.534 107.795 722.2 107.016 722.2 106.125C722.2 105.234 722.534 104.455 723.202 103.787C723.944 103.119 724.946 102.785 726.208 102.785H750.032C751.294 102.785 752.259 103.119 752.927 103.787C753.669 104.455 754.04 105.234 754.04 106.125C754.04 107.016 753.669 107.795 752.927 108.463C752.259 109.131 751.294 109.465 750.032 109.465H726.208ZM683.458 95.2148C682.196 95.2148 681.194 94.8809 680.452 94.2129C679.784 93.5449 679.45 92.7656 679.45 91.875C679.45 90.9844 679.784 90.2051 680.452 89.5371C681.194 88.8691 682.196 88.5352 683.458 88.5352H735.782C737.044 88.5352 738.009 88.8691 738.677 89.5371C739.419 90.2051 739.79 90.9844 739.79 91.875C739.79 92.7656 739.419 93.5449 738.677 94.2129C738.009 94.8809 737.044 95.2148 735.782 95.2148H683.458ZM697.708 80.9648C696.446 80.9648 695.444 80.6309 694.702 79.9629C694.034 79.2949 693.7 78.5156 693.7 77.625C693.7 76.7344 694.034 75.9551 694.702 75.2871C695.444 74.6191 696.446 74.2852 697.708 74.2852H721.532C722.794 74.2852 723.759 74.6191 724.427 75.2871C725.169 75.9551 725.54 76.7344 725.54 77.625C725.54 78.5156 725.169 79.2949 724.427 79.9629C723.759 80.6309 722.794 80.9648 721.532 80.9648H697.708ZM809.998 166.465C808.736 166.465 807.734 166.131 806.992 165.463C806.324 164.795 805.99 164.016 805.99 163.125C805.99 162.234 806.324 161.455 806.992 160.787C807.734 160.119 808.736 159.785 809.998 159.785H862.322C863.584 159.785 864.549 160.119 865.217 160.787C865.959 161.455 866.33 162.234 866.33 163.125C866.33 164.016 865.959 164.795 865.217 165.463C864.549 166.131 863.584 166.465 862.322 166.465H809.998ZM795.748 152.215C794.486 152.215 793.484 151.881 792.742 151.213C792.074 150.545 791.74 149.766 791.74 148.875C791.74 147.984 792.074 147.205 792.742 146.537C793.484 145.869 794.486 145.535 795.748 145.535H819.572C820.834 145.535 821.799 145.869 822.467 146.537C823.209 147.205 823.58 147.984 823.58 148.875C823.58 149.766 823.209 150.545 822.467 151.213C821.799 151.881 820.834 152.215 819.572 152.215H795.748ZM852.748 152.215C851.486 152.215 850.484 151.881 849.742 151.213C849.074 150.545 848.74 149.766 848.74 148.875C848.74 147.984 849.074 147.205 849.742 146.537C850.484 145.869 851.486 145.535 852.748 145.535H876.572C877.834 145.535 878.799 145.869 879.467 146.537C880.209 147.205 880.58 147.984 880.58 148.875C880.58 149.766 880.209 150.545 879.467 151.213C878.799 151.881 877.834 152.215 876.572 152.215H852.748ZM852.748 137.965C851.486 137.965 850.484 137.631 849.742 136.963C849.074 136.295 848.74 135.516 848.74 134.625C848.74 133.734 849.074 132.955 849.742 132.287C850.484 131.619 851.486 131.285 852.748 131.285H876.572C877.834 131.285 878.799 131.619 879.467 132.287C880.209 132.955 880.58 133.734 880.58 134.625C880.58 135.516 880.209 136.295 879.467 136.963C878.799 137.631 877.834 137.965 876.572 137.965H852.748ZM809.998 123.715C808.736 123.715 807.734 123.381 806.992 122.713C806.324 122.045 805.99 121.266 805.99 120.375C805.99 119.484 806.324 118.705 806.992 118.037C807.734 117.369 808.736 117.035 809.998 117.035H862.322C863.584 117.035 864.549 117.369 865.217 118.037C865.959 118.705 866.33 119.484 866.33 120.375C866.33 121.266 865.959 122.045 865.217 122.713C864.549 123.381 863.584 123.715 862.322 123.715H809.998ZM795.748 109.465C794.486 109.465 793.484 109.131 792.742 108.463C792.074 107.795 791.74 107.016 791.74 106.125C791.74 105.234 792.074 104.455 792.742 103.787C793.484 103.119 794.486 102.785 795.748 102.785H819.572C820.834 102.785 821.799 103.119 822.467 103.787C823.209 104.455 823.58 105.234 823.58 106.125C823.58 107.016 823.209 107.795 822.467 108.463C821.799 109.131 820.834 109.465 819.572 109.465H795.748ZM795.748 95.2148C794.486 95.2148 793.484 94.8809 792.742 94.2129C792.074 93.5449 791.74 92.7656 791.74 91.875C791.74 90.9844 792.074 90.2051 792.742 89.5371C793.484 88.8691 794.486 88.5352 795.748 88.5352H819.572C820.834 88.5352 821.799 88.8691 822.467 89.5371C823.209 90.2051 823.58 90.9844 823.58 91.875C823.58 92.7656 823.209 93.5449 822.467 94.2129C821.799 94.8809 820.834 95.2148 819.572 95.2148H795.748ZM852.748 95.2148C851.486 95.2148 850.484 94.8809 849.742 94.2129C849.074 93.5449 848.74 92.7656 848.74 91.875C848.74 90.9844 849.074 90.2051 849.742 89.5371C850.484 88.8691 851.486 88.5352 852.748 88.5352H876.572C877.834 88.5352 878.799 88.8691 879.467 89.5371C880.209 90.2051 880.58 90.9844 880.58 91.875C880.58 92.7656 880.209 93.5449 879.467 94.2129C878.799 94.8809 877.834 95.2148 876.572 95.2148H852.748ZM809.998 80.9648C808.736 80.9648 807.734 80.6309 806.992 79.9629C806.324 79.2949 805.99 78.5156 805.99 77.625C805.99 76.7344 806.324 75.9551 806.992 75.2871C807.734 74.6191 808.736 74.2852 809.998 74.2852H862.322C863.584 74.2852 864.549 74.6191 865.217 75.2871C865.959 75.9551 866.33 76.7344 866.33 77.625C866.33 78.5156 865.959 79.2949 865.217 79.9629C864.549 80.6309 863.584 80.9648 862.322 80.9648H809.998Z" fill="black"/>
</svg>
