<svg width="671" height="164" viewBox="0 0 671 164" fill="none" xmlns="http://www.w3.org/2000/svg">
<path d="M41.5879 121.215C40.3262 121.215 39.3242 120.881 38.582 120.213C37.9141 119.545 37.5801 118.766 37.5801 117.875C37.5801 116.984 37.9141 116.205 38.582 115.537C39.3242 114.869 40.3262 114.535 41.5879 114.535H65.4121C66.6738 114.535 67.6387 114.869 68.3066 115.537C69.0488 116.205 69.4199 116.984 69.4199 117.875C69.4199 118.766 69.0488 119.545 68.3066 120.213C67.6387 120.881 66.6738 121.215 65.4121 121.215H41.5879ZM98.5879 121.215C97.3262 121.215 96.3242 120.881 95.582 120.213C94.9141 119.545 94.5801 118.766 94.5801 117.875C94.5801 116.984 94.9141 116.205 95.582 115.537C96.3242 114.869 97.3262 114.535 98.5879 114.535H122.412C123.674 114.535 124.639 114.869 125.307 115.537C126.049 116.205 126.42 116.984 126.42 117.875C126.42 118.766 126.049 119.545 125.307 120.213C124.639 120.881 123.674 121.215 122.412 121.215H98.5879ZM41.5879 106.965C40.3262 106.965 39.3242 106.631 38.582 105.963C37.9141 105.295 37.5801 104.516 37.5801 103.625C37.5801 102.734 37.9141 101.955 38.582 101.287C39.3242 100.619 40.3262 100.285 41.5879 100.285H65.4121C66.6738 100.285 67.6387 100.619 68.3066 101.287C69.0488 101.955 69.4199 102.734 69.4199 103.625C69.4199 104.516 69.0488 105.295 68.3066 105.963C67.6387 106.631 66.6738 106.965 65.4121 106.965H41.5879ZM98.5879 106.965C97.3262 106.965 96.3242 106.631 95.582 105.963C94.9141 105.295 94.5801 104.516 94.5801 103.625C94.5801 102.734 94.9141 101.955 95.582 101.287C96.3242 100.619 97.3262 100.285 98.5879 100.285H122.412C123.674 100.285 124.639 100.619 125.307 101.287C126.049 101.955 126.42 102.734 126.42 103.625C126.42 104.516 126.049 105.295 125.307 105.963C124.639 106.631 123.674 106.965 122.412 106.965H98.5879ZM41.5879 92.7148C40.3262 92.7148 39.3242 92.3809 38.582 91.7129C37.9141 91.0449 37.5801 90.2656 37.5801 89.375C37.5801 88.4844 37.9141 87.7051 38.582 87.0371C39.3242 86.3691 40.3262 86.0352 41.5879 86.0352H65.4121C66.6738 86.0352 67.6387 86.3691 68.3066 87.0371C69.0488 87.7051 69.4199 88.4844 69.4199 89.375C69.4199 90.2656 69.0488 91.0449 68.3066 91.7129C67.6387 92.3809 66.6738 92.7148 65.4121 92.7148H41.5879ZM98.5879 92.7148C97.3262 92.7148 96.3242 92.3809 95.582 91.7129C94.9141 91.0449 94.5801 90.2656 94.5801 89.375C94.5801 88.4844 94.9141 87.7051 95.582 87.0371C96.3242 86.3691 97.3262 86.0352 98.5879 86.0352H122.412C123.674 86.0352 124.639 86.3691 125.307 87.0371C126.049 87.7051 126.42 88.4844 126.42 89.375C126.42 90.2656 126.049 91.0449 125.307 91.7129C124.639 92.3809 123.674 92.7148 122.412 92.7148H98.5879ZM41.5879 78.4648C40.3262 78.4648 39.3242 78.1309 38.582 77.4629C37.9141 76.7949 37.5801 76.0156 37.5801 75.125C37.5801 74.2344 37.9141 73.4551 38.582 72.7871C39.3242 72.1191 40.3262 71.7852 41.5879 71.7852H122.412C123.674 71.7852 124.639 72.1191 125.307 72.7871C126.049 73.4551 126.42 74.2344 126.42 75.125C126.42 76.0156 126.049 76.7949 125.307 77.4629C124.639 78.1309 123.674 78.4648 122.412 78.4648H41.5879ZM41.5879 64.2148C40.3262 64.2148 39.3242 63.8809 38.582 63.2129C37.9141 62.5449 37.5801 61.7656 37.5801 60.875C37.5801 59.9844 37.9141 59.2051 38.582 58.5371C39.3242 57.8691 40.3262 57.5352 41.5879 57.5352H65.4121C66.6738 57.5352 67.6387 57.8691 68.3066 58.5371C69.0488 59.2051 69.4199 59.9844 69.4199 60.875C69.4199 61.7656 69.0488 62.5449 68.3066 63.2129C67.6387 63.8809 66.6738 64.2148 65.4121 64.2148H41.5879ZM98.5879 64.2148C97.3262 64.2148 96.3242 63.8809 95.582 63.2129C94.9141 62.5449 94.5801 61.7656 94.5801 60.875C94.5801 59.9844 94.9141 59.2051 95.582 58.5371C96.3242 57.8691 97.3262 57.5352 98.5879 57.5352H122.412C123.674 57.5352 124.639 57.8691 125.307 58.5371C126.049 59.2051 126.42 59.9844 126.42 60.875C126.42 61.7656 126.049 62.5449 125.307 63.2129C124.639 63.8809 123.674 64.2148 122.412 64.2148H98.5879ZM55.8379 49.9648C54.5762 49.9648 53.5742 49.6309 52.832 48.9629C52.1641 48.2949 51.8301 47.5156 51.8301 46.625C51.8301 45.7344 52.1641 44.9551 52.832 44.2871C53.5742 43.6191 54.5762 43.2852 55.8379 43.2852H108.162C109.424 43.2852 110.389 43.6191 111.057 44.2871C111.799 44.9551 112.17 45.7344 112.17 46.625C112.17 47.5156 111.799 48.2949 111.057 48.9629C110.389 49.6309 109.424 49.9648 108.162 49.9648H55.8379ZM70.0879 35.7148C68.8262 35.7148 67.8242 35.3809 67.082 34.7129C66.4141 34.0449 66.0801 33.2656 66.0801 32.375C66.0801 31.4844 66.4141 30.7051 67.082 30.0371C67.8242 29.3691 68.8262 29.0352 70.0879 29.0352H93.9121C95.1738 29.0352 96.1387 29.3691 96.8066 30.0371C97.5488 30.7051 97.9199 31.4844 97.9199 32.375C97.9199 33.2656 97.5488 34.0449 96.8066 34.7129C96.1387 35.3809 95.1738 35.7148 93.9121 35.7148H70.0879ZM196.628 121.215C195.366 121.215 194.364 120.881 193.622 120.213C192.954 119.545 192.62 118.766 192.62 117.875C192.62 116.984 192.954 116.205 193.622 115.537C194.364 114.869 195.366 114.535 196.628 114.535H220.452C221.714 114.535 222.679 114.869 223.347 115.537C224.089 116.205 224.46 116.984 224.46 117.875C224.46 118.766 224.089 119.545 223.347 120.213C222.679 120.881 221.714 121.215 220.452 121.215H196.628ZM196.628 106.965C195.366 106.965 194.364 106.631 193.622 105.963C192.954 105.295 192.62 104.516 192.62 103.625C192.62 102.734 192.954 101.955 193.622 101.287C194.364 100.619 195.366 100.285 196.628 100.285H220.452C221.714 100.285 222.679 100.619 223.347 101.287C224.089 101.955 224.46 102.734 224.46 103.625C224.46 104.516 224.089 105.295 223.347 105.963C222.679 106.631 221.714 106.965 220.452 106.965H196.628ZM196.628 92.7148C195.366 92.7148 194.364 92.3809 193.622 91.7129C192.954 91.0449 192.62 90.2656 192.62 89.375C192.62 88.4844 192.954 87.7051 193.622 87.0371C194.364 86.3691 195.366 86.0352 196.628 86.0352H220.452C221.714 86.0352 222.679 86.3691 223.347 87.0371C224.089 87.7051 224.46 88.4844 224.46 89.375C224.46 90.2656 224.089 91.0449 223.347 91.7129C222.679 92.3809 221.714 92.7148 220.452 92.7148H196.628ZM196.628 78.4648C195.366 78.4648 194.364 78.1309 193.622 77.4629C192.954 76.7949 192.62 76.0156 192.62 75.125C192.62 74.2344 192.954 73.4551 193.622 72.7871C194.364 72.1191 195.366 71.7852 196.628 71.7852H220.452C221.714 71.7852 222.679 72.1191 223.347 72.7871C224.089 73.4551 224.46 74.2344 224.46 75.125C224.46 76.0156 224.089 76.7949 223.347 77.4629C222.679 78.1309 221.714 78.4648 220.452 78.4648H196.628ZM196.628 64.2148C195.366 64.2148 194.364 63.8809 193.622 63.2129C192.954 62.5449 192.62 61.7656 192.62 60.875C192.62 59.9844 192.954 59.2051 193.622 58.5371C194.364 57.8691 195.366 57.5352 196.628 57.5352H220.452C221.714 57.5352 222.679 57.8691 223.347 58.5371C224.089 59.2051 224.46 59.9844 224.46 60.875C224.46 61.7656 224.089 62.5449 223.347 63.2129C222.679 63.8809 221.714 64.2148 220.452 64.2148H196.628ZM196.628 49.9648C195.366 49.9648 194.364 49.6309 193.622 48.9629C192.954 48.2949 192.62 47.5156 192.62 46.625C192.62 45.7344 192.954 44.9551 193.622 44.2871C194.364 43.6191 195.366 43.2852 196.628 43.2852H220.452C221.714 43.2852 222.679 43.6191 223.347 44.2871C224.089 44.9551 224.46 45.7344 224.46 46.625C224.46 47.5156 224.089 48.2949 223.347 48.9629C222.679 49.6309 221.714 49.9648 220.452 49.9648H196.628ZM168.128 35.7148C166.866 35.7148 165.864 35.3809 165.122 34.7129C164.454 34.0449 164.12 33.2656 164.12 32.375C164.12 31.4844 164.454 30.7051 165.122 30.0371C165.864 29.3691 166.866 29.0352 168.128 29.0352H248.952C250.214 29.0352 251.179 29.3691 251.847 30.0371C252.589 30.7051 252.96 31.4844 252.96 32.375C252.96 33.2656 252.589 34.0449 251.847 34.7129C251.179 35.3809 250.214 35.7148 248.952 35.7148H168.128ZM294.668 121.215C293.406 121.215 292.404 120.881 291.662 120.213C290.994 119.545 290.66 118.766 290.66 117.875C290.66 116.984 290.994 116.205 291.662 115.537C292.404 114.869 293.406 114.535 294.668 114.535H375.492C376.754 114.535 377.719 114.869 378.387 115.537C379.129 116.205 379.5 116.984 379.5 117.875C379.5 118.766 379.129 119.545 378.387 120.213C377.719 120.881 376.754 121.215 375.492 121.215H294.668ZM294.668 106.965C293.406 106.965 292.404 106.631 291.662 105.963C290.994 105.295 290.66 104.516 290.66 103.625C290.66 102.734 290.994 101.955 291.662 101.287C292.404 100.619 293.406 100.285 294.668 100.285H318.492C319.754 100.285 320.719 100.619 321.387 101.287C322.129 101.955 322.5 102.734 322.5 103.625C322.5 104.516 322.129 105.295 321.387 105.963C320.719 106.631 319.754 106.965 318.492 106.965H294.668ZM294.668 92.7148C293.406 92.7148 292.404 92.3809 291.662 91.7129C290.994 91.0449 290.66 90.2656 290.66 89.375C290.66 88.4844 290.994 87.7051 291.662 87.0371C292.404 86.3691 293.406 86.0352 294.668 86.0352H318.492C319.754 86.0352 320.719 86.3691 321.387 87.0371C322.129 87.7051 322.5 88.4844 322.5 89.375C322.5 90.2656 322.129 91.0449 321.387 91.7129C320.719 92.3809 319.754 92.7148 318.492 92.7148H294.668ZM294.668 78.4648C293.406 78.4648 292.404 78.1309 291.662 77.4629C290.994 76.7949 290.66 76.0156 290.66 75.125C290.66 74.2344 290.994 73.4551 291.662 72.7871C292.404 72.1191 293.406 71.7852 294.668 71.7852H318.492C319.754 71.7852 320.719 72.1191 321.387 72.7871C322.129 73.4551 322.5 74.2344 322.5 75.125C322.5 76.0156 322.129 76.7949 321.387 77.4629C320.719 78.1309 319.754 78.4648 318.492 78.4648H294.668ZM294.668 64.2148C293.406 64.2148 292.404 63.8809 291.662 63.2129C290.994 62.5449 290.66 61.7656 290.66 60.875C290.66 59.9844 290.994 59.2051 291.662 58.5371C292.404 57.8691 293.406 57.5352 294.668 57.5352H318.492C319.754 57.5352 320.719 57.8691 321.387 58.5371C322.129 59.2051 322.5 59.9844 322.5 60.875C322.5 61.7656 322.129 62.5449 321.387 63.2129C320.719 63.8809 319.754 64.2148 318.492 64.2148H294.668ZM294.668 49.9648C293.406 49.9648 292.404 49.6309 291.662 48.9629C290.994 48.2949 290.66 47.5156 290.66 46.625C290.66 45.7344 290.994 44.9551 291.662 44.2871C292.404 43.6191 293.406 43.2852 294.668 43.2852H318.492C319.754 43.2852 320.719 43.6191 321.387 44.2871C322.129 44.9551 322.5 45.7344 322.5 46.625C322.5 47.5156 322.129 48.2949 321.387 48.9629C320.719 49.6309 319.754 49.9648 318.492 49.9648H294.668ZM294.668 35.7148C293.406 35.7148 292.404 35.3809 291.662 34.7129C290.994 34.0449 290.66 33.2656 290.66 32.375C290.66 31.4844 290.994 30.7051 291.662 30.0371C292.404 29.3691 293.406 29.0352 294.668 29.0352H318.492C319.754 29.0352 320.719 29.3691 321.387 30.0371C322.129 30.7051 322.5 31.4844 322.5 32.375C322.5 33.2656 322.129 34.0449 321.387 34.7129C320.719 35.3809 319.754 35.7148 318.492 35.7148H294.668ZM421.208 121.215C419.946 121.215 418.944 120.881 418.202 120.213C417.534 119.545 417.2 118.766 417.2 117.875C417.2 116.984 417.534 116.205 418.202 115.537C418.944 114.869 419.946 114.535 421.208 114.535H445.032C446.294 114.535 447.259 114.869 447.927 115.537C448.669 116.205 449.04 116.984 449.04 117.875C449.04 118.766 448.669 119.545 447.927 120.213C447.259 120.881 446.294 121.215 445.032 121.215H421.208ZM478.208 121.215C476.946 121.215 475.944 120.881 475.202 120.213C474.534 119.545 474.2 118.766 474.2 117.875C474.2 116.984 474.534 116.205 475.202 115.537C475.944 114.869 476.946 114.535 478.208 114.535H502.032C503.294 114.535 504.259 114.869 504.927 115.537C505.669 116.205 506.04 116.984 506.04 117.875C506.04 118.766 505.669 119.545 504.927 120.213C504.259 120.881 503.294 121.215 502.032 121.215H478.208ZM421.208 106.965C419.946 106.965 418.944 106.631 418.202 105.963C417.534 105.295 417.2 104.516 417.2 103.625C417.2 102.734 417.534 101.955 418.202 101.287C418.944 100.619 419.946 100.285 421.208 100.285H445.032C446.294 100.285 447.259 100.619 447.927 101.287C448.669 101.955 449.04 102.734 449.04 103.625C449.04 104.516 448.669 105.295 447.927 105.963C447.259 106.631 446.294 106.965 445.032 106.965H421.208ZM478.208 106.965C476.946 106.965 475.944 106.631 475.202 105.963C474.534 105.295 474.2 104.516 474.2 103.625C474.2 102.734 474.534 101.955 475.202 101.287C475.944 100.619 476.946 100.285 478.208 100.285H502.032C503.294 100.285 504.259 100.619 504.927 101.287C505.669 101.955 506.04 102.734 506.04 103.625C506.04 104.516 505.669 105.295 504.927 105.963C504.259 106.631 503.294 106.965 502.032 106.965H478.208ZM421.208 92.7148C419.946 92.7148 418.944 92.3809 418.202 91.7129C417.534 91.0449 417.2 90.2656 417.2 89.375C417.2 88.4844 417.534 87.7051 418.202 87.0371C418.944 86.3691 419.946 86.0352 421.208 86.0352H445.032C446.294 86.0352 447.259 86.3691 447.927 87.0371C448.669 87.7051 449.04 88.4844 449.04 89.375C449.04 90.2656 448.669 91.0449 447.927 91.7129C447.259 92.3809 446.294 92.7148 445.032 92.7148H421.208ZM478.208 92.7148C476.946 92.7148 475.944 92.3809 475.202 91.7129C474.534 91.0449 474.2 90.2656 474.2 89.375C474.2 88.4844 474.534 87.7051 475.202 87.0371C475.944 86.3691 476.946 86.0352 478.208 86.0352H502.032C503.294 86.0352 504.259 86.3691 504.927 87.0371C505.669 87.7051 506.04 88.4844 506.04 89.375C506.04 90.2656 505.669 91.0449 504.927 91.7129C504.259 92.3809 503.294 92.7148 502.032 92.7148H478.208ZM421.208 78.4648C419.946 78.4648 418.944 78.1309 418.202 77.4629C417.534 76.7949 417.2 76.0156 417.2 75.125C417.2 74.2344 417.534 73.4551 418.202 72.7871C418.944 72.1191 419.946 71.7852 421.208 71.7852H502.032C503.294 71.7852 504.259 72.1191 504.927 72.7871C505.669 73.4551 506.04 74.2344 506.04 75.125C506.04 76.0156 505.669 76.7949 504.927 77.4629C504.259 78.1309 503.294 78.4648 502.032 78.4648H421.208ZM421.208 64.2148C419.946 64.2148 418.944 63.8809 418.202 63.2129C417.534 62.5449 417.2 61.7656 417.2 60.875C417.2 59.9844 417.534 59.2051 418.202 58.5371C418.944 57.8691 419.946 57.5352 421.208 57.5352H445.032C446.294 57.5352 447.259 57.8691 447.927 58.5371C448.669 59.2051 449.04 59.9844 449.04 60.875C449.04 61.7656 448.669 62.5449 447.927 63.2129C447.259 63.8809 446.294 64.2148 445.032 64.2148H421.208ZM478.208 64.2148C476.946 64.2148 475.944 63.8809 475.202 63.2129C474.534 62.5449 474.2 61.7656 474.2 60.875C474.2 59.9844 474.534 59.2051 475.202 58.5371C475.944 57.8691 476.946 57.5352 478.208 57.5352H502.032C503.294 57.5352 504.259 57.8691 504.927 58.5371C505.669 59.2051 506.04 59.9844 506.04 60.875C506.04 61.7656 505.669 62.5449 504.927 63.2129C504.259 63.8809 503.294 64.2148 502.032 64.2148H478.208ZM435.458 49.9648C434.196 49.9648 433.194 49.6309 432.452 48.9629C431.784 48.2949 431.45 47.5156 431.45 46.625C431.45 45.7344 431.784 44.9551 432.452 44.2871C433.194 43.6191 434.196 43.2852 435.458 43.2852H487.782C489.044 43.2852 490.009 43.6191 490.677 44.2871C491.419 44.9551 491.79 45.7344 491.79 46.625C491.79 47.5156 491.419 48.2949 490.677 48.9629C490.009 49.6309 489.044 49.9648 487.782 49.9648H435.458ZM449.708 35.7148C448.446 35.7148 447.444 35.3809 446.702 34.7129C446.034 34.0449 445.7 33.2656 445.7 32.375C445.7 31.4844 446.034 30.7051 446.702 30.0371C447.444 29.3691 448.446 29.0352 449.708 29.0352H473.532C474.794 29.0352 475.759 29.3691 476.427 30.0371C477.169 30.7051 477.54 31.4844 477.54 32.375C477.54 33.2656 477.169 34.0449 476.427 34.7129C475.759 35.3809 474.794 35.7148 473.532 35.7148H449.708ZM561.998 121.215C560.736 121.215 559.734 120.881 558.992 120.213C558.324 119.545 557.99 118.766 557.99 117.875C557.99 116.984 558.324 116.205 558.992 115.537C559.734 114.869 560.736 114.535 561.998 114.535H614.322C615.584 114.535 616.549 114.869 617.217 115.537C617.959 116.205 618.33 116.984 618.33 117.875C618.33 118.766 617.959 119.545 617.217 120.213C616.549 120.881 615.584 121.215 614.322 121.215H561.998ZM547.748 106.965C546.486 106.965 545.484 106.631 544.742 105.963C544.074 105.295 543.74 104.516 543.74 103.625C543.74 102.734 544.074 101.955 544.742 101.287C545.484 100.619 546.486 100.285 547.748 100.285H571.572C572.834 100.285 573.799 100.619 574.467 101.287C575.209 101.955 575.58 102.734 575.58 103.625C575.58 104.516 575.209 105.295 574.467 105.963C573.799 106.631 572.834 106.965 571.572 106.965H547.748ZM604.748 106.965C603.486 106.965 602.484 106.631 601.742 105.963C601.074 105.295 600.74 104.516 600.74 103.625C600.74 102.734 601.074 101.955 601.742 101.287C602.484 100.619 603.486 100.285 604.748 100.285H628.572C629.834 100.285 630.799 100.619 631.467 101.287C632.209 101.955 632.58 102.734 632.58 103.625C632.58 104.516 632.209 105.295 631.467 105.963C630.799 106.631 629.834 106.965 628.572 106.965H604.748ZM604.748 92.7148C603.486 92.7148 602.484 92.3809 601.742 91.7129C601.074 91.0449 600.74 90.2656 600.74 89.375C600.74 88.4844 601.074 87.7051 601.742 87.0371C602.484 86.3691 603.486 86.0352 604.748 86.0352H628.572C629.834 86.0352 630.799 86.3691 631.467 87.0371C632.209 87.7051 632.58 88.4844 632.58 89.375C632.58 90.2656 632.209 91.0449 631.467 91.7129C630.799 92.3809 629.834 92.7148 628.572 92.7148H604.748ZM561.998 78.4648C560.736 78.4648 559.734 78.1309 558.992 77.4629C558.324 76.7949 557.99 76.0156 557.99 75.125C557.99 74.2344 558.324 73.4551 558.992 72.7871C559.734 72.1191 560.736 71.7852 561.998 71.7852H614.322C615.584 71.7852 616.549 72.1191 617.217 72.7871C617.959 73.4551 618.33 74.2344 618.33 75.125C618.33 76.0156 617.959 76.7949 617.217 77.4629C616.549 78.1309 615.584 78.4648 614.322 78.4648H561.998ZM547.748 64.2148C546.486 64.2148 545.484 63.8809 544.742 63.2129C544.074 62.5449 543.74 61.7656 543.74 60.875C543.74 59.9844 544.074 59.2051 544.742 58.5371C545.484 57.8691 546.486 57.5352 547.748 57.5352H571.572C572.834 57.5352 573.799 57.8691 574.467 58.5371C575.209 59.2051 575.58 59.9844 575.58 60.875C575.58 61.7656 575.209 62.5449 574.467 63.2129C573.799 63.8809 572.834 64.2148 571.572 64.2148H547.748ZM547.748 49.9648C546.486 49.9648 545.484 49.6309 544.742 48.9629C544.074 48.2949 543.74 47.5156 543.74 46.625C543.74 45.7344 544.074 44.9551 544.742 44.2871C545.484 43.6191 546.486 43.2852 547.748 43.2852H571.572C572.834 43.2852 573.799 43.6191 574.467 44.2871C575.209 44.9551 575.58 45.7344 575.58 46.625C575.58 47.5156 575.209 48.2949 574.467 48.9629C573.799 49.6309 572.834 49.9648 571.572 49.9648H547.748ZM604.748 49.9648C603.486 49.9648 602.484 49.6309 601.742 48.9629C601.074 48.2949 600.74 47.5156 600.74 46.625C600.74 45.7344 601.074 44.9551 601.742 44.2871C602.484 43.6191 603.486 43.2852 604.748 43.2852H628.572C629.834 43.2852 630.799 43.6191 631.467 44.2871C632.209 44.9551 632.58 45.7344 632.58 46.625C632.58 47.5156 632.209 48.2949 631.467 48.9629C630.799 49.6309 629.834 49.9648 628.572 49.9648H604.748ZM561.998 35.7148C560.736 35.7148 559.734 35.3809 558.992 34.7129C558.324 34.0449 557.99 33.2656 557.99 32.375C557.99 31.4844 558.324 30.7051 558.992 30.0371C559.734 29.3691 560.736 29.0352 561.998 29.0352H614.322C615.584 29.0352 616.549 29.3691 617.217 30.0371C617.959 30.7051 618.33 31.4844 618.33 32.375C618.33 33.2656 617.959 34.0449 617.217 34.7129C616.549 35.3809 615.584 35.7148 614.322 35.7148H561.998Z" fill="white"/>
</svg>
